<svg width="51" height="52" xmlns="http://www.w3.org/2000/svg"><defs><filter y="-5%" height="121.2%" filterUnits="objectBoundingBox" id="a"><feOffset dy="4" in="SourceAlpha" result="shadowOffsetOuter1"/><feGaussianBlur stdDeviation="2" in="shadowOffsetOuter1" result="shadowBlurOuter1"/><feColorMatrix values="0 0 0 0 0 0 0 0 0 0 0 0 0 0 0 0 0 0 0.25 0" in="shadowBlurOuter1" result="shadowMatrixOuter1"/><feMerge><feMergeNode in="shadowMatrixOuter1"/><feMergeNode in="SourceGraphic"/></feMerge></filter></defs><g filter="url(#a)" transform="translate(-14 -18)" fill="none" fill-rule="evenodd"><path d="M40 26.711c4.069 0 6.813 1.758 8.378 3.226l6.115-5.97C50.737 20.476 45.85 18.333 40 18.333c-8.474 0-15.793 4.863-19.356 11.941l7.006 5.44c1.757-5.223 6.62-9.003 12.35-9.003z" fill="#EA4335"/><path d="M60.8 40.481c0-1.781-.144-3.081-.457-4.43H40v8.042h11.94c-.24 1.998-1.54 5.007-4.429 7.03l6.837 5.296c4.093-3.78 6.452-9.341 6.452-15.938z" fill="#4285F4"/><path d="M27.674 44.285A13.338 13.338 0 0126.952 40c0-1.493.265-2.937.698-4.285l-7.006-5.44A21.686 21.686 0 0018.334 40c0 3.49.842 6.789 2.31 9.726l7.03-5.44z" fill="#FBBC05"/><path d="M40 61.667c5.85 0 10.761-1.926 14.348-5.248l-6.837-5.297c-1.83 1.276-4.285 2.167-7.511 2.167-5.73 0-10.593-3.78-12.326-9.004l-7.005 5.44C24.23 56.805 31.526 61.668 40 61.668z" fill="#34A853"/><path d="M18.333 18.333h43.334v43.334H18.333z"/></g></svg>