<svg width="50" height="46" xmlns="http://www.w3.org/2000/svg"><defs><filter y="-5%" height="121.2%" filterUnits="objectBoundingBox" id="a"><feOffset dy="4" in="SourceAlpha" result="shadowOffsetOuter1"/><feGaussianBlur stdDeviation="2" in="shadowOffsetOuter1" result="shadowBlurOuter1"/><feColorMatrix values="0 0 0 0 0 0 0 0 0 0 0 0 0 0 0 0 0 0 0.25 0" in="shadowBlurOuter1" result="shadowMatrixOuter1"/><feMerge><feMergeNode in="shadowMatrixOuter1"/><feMergeNode in="SourceGraphic"/></feMerge></filter></defs><path d="M9.077 8.81c6.678 3.441 12.321 3.243 12.321 3.243s-2.14-7.61 4.474-10.984c6.613-3.374 11.163 2.315 11.163 2.315s1.154-.323 2.013-.646c.86-.323 2.103-.9 2.103-.9L39.113 5.55l3.138-.34s-.386.577-1.642 1.753c-1.256 1.175-1.774 1.782-1.774 1.782s.449 9.16-4.279 16.21C29.83 32.007 23.72 36.24 14.846 37.13c-8.872.89-14.65-2.779-14.65-2.779s3.88-.226 6.353-1.191c2.473-.965 6.03-3.507 6.03-3.507s-5.057-1.588-6.873-3.374c-1.815-1.787-2.269-2.845-2.269-2.845l4.992-.067s-5.251-2.845-6.742-5.094C.195 16.023 0 13.84 0 13.84l3.838 1.582S.648 10.995.195 7.554c-.454-3.44.583-5.293.583-5.293s1.62 3.11 8.299 6.55z" transform="translate(4 .667)" filter="url(#a)" fill="#FFF" fill-rule="evenodd"/></svg>